<?xml version="1.0" encoding="utf-8"?>
<!DOCTYPE svg PUBLIC "-//W3C//DTD SVG 1.1//EN" "http://www.w3.org/Graphics/SVG/1.1/DTD/svg11.dtd">
<svg version="1.1" id="Layer_1" xmlns="http://www.w3.org/2000/svg" xmlns:xlink="http://www.w3.org/1999/xlink" x="0px" y="0px"
	 width="246.207px" height="207.5px" viewBox="0 0 246.207 207.5" enable-background="new 0 0 246.207 207.5" xml:space="preserve" preserveAspectRatio="none">
<g>
	<path fill="#001B3D" d="M217.432,74.573l-13.223,1.174c-0.007-0.022-0.011-0.045-0.019-0.067
		c12.042-5.698,18.738-19.045,15.991-32.199c-0.328-1.568-0.782-3.078-1.34-4.527c-3.184-15.041-17.939-24.678-32.999-21.533
		c-11.965,2.499-20.519,12.318-21.974,23.801c-1.319,4.454-1.589,9.284-0.575,14.14c2.288,10.958,10.642,19.393,21.063,22.145
		l-7.546,0.668l0.176,1.128l-2.819,0.575c0,0,0-0.001,0-0.001l-35.743,7.286l0,0l-25.479,5.193
		c8.375-6.701,12.605-17.728,10.327-28.637c-0.328-1.571-0.784-3.083-1.344-4.534c-3.186-15.038-17.939-24.671-32.995-21.527
		c-11.987,2.502-20.547,12.352-21.98,23.86c-0.893,3.033-1.297,6.239-1.143,9.509L3.654,89.918l1.695,3.024l-3.217,0.978
		l26.606,47.471l11.986-20.632l-17.958,65.078l0.301-0.061l-1.727,6.259l69.772-14.108l0.032,0.206l30.387-5.87l0.545-49.781
		l13.62-2.989l-12.909,52.197l0.169-0.047l-1.581,6.391l74.682-20.97L196,156.98l21.978-4.244l0.817-74.738l-1.401,0.125
		L217.432,74.573z M85.039,138.824l-19.333,4.307l7.819-53.707c3.35,3.598,7.563,6.272,12.174,7.807l-5.335,0.473l0.543,3.497
		l-1.686,0.149L85.039,138.824z"/>
	<g>
		<path fill="#1982FA" d="M216.417,62.002c-0.059-0.279-0.134-0.553-0.226-0.822c12.042-5.698,18.738-19.045,15.991-32.199
			c-3.275-15.684-18.699-25.779-34.384-22.503c-15.684,3.274-25.779,18.699-22.504,34.383c2.747,13.154,14.225,22.706,27.541,23.107
			c0.023,0.283,0.063,0.564,0.122,0.844l0.236,1.132l-15.524,1.375l0.195,1.259L119.561,82.5l-0.054-0.26
			c-0.059-0.279-0.134-0.554-0.227-0.823c12.042-5.698,18.739-19.044,15.992-32.198c-3.276-15.683-18.7-25.779-34.384-22.505
			c-15.28,3.191-25.281,17.967-22.717,33.242L14.132,79.421l26.606,47.471l12.526-21.562L33.34,177.537l69.772-14.108l0.032,0.206
			l30.387-5.87l0.545-49.781l13.788-3.025l-14.488,58.577l74.682-20.97L208,142.48l21.978-4.244l0.817-74.738l-13.81,1.225
			L216.417,62.002z M196.783,126.035l-13.055-19.14l-12.973,16.614l18.595-45.347L196.783,126.035z M77.172,132.296l8.353-57.373
			c5.269,5.659,12.667,9.043,20.398,9.282c0.025,0.285,0.065,0.566,0.123,0.846l0.041,0.196l-2.471,0.503L91.221,86.85l6.35,40.901
			L77.172,132.296z"/>
		
			<linearGradient id="SVGID_1_" gradientUnits="userSpaceOnUse" x1="-35.9668" y1="88.4399" x2="56.3193" y2="248.2842" gradientTransform="matrix(0.9789 -0.2044 0.2044 0.9789 88.1075 -67.9649)">
			<stop  offset="0" style="stop-color:#1A8DF9"/>
			<stop  offset="0.2414" style="stop-color:#00ADF9"/>
			<stop  offset="0.5419" style="stop-color:#1A8FF9"/>
			<stop  offset="0.8128" style="stop-color:#00ADF9"/>
		</linearGradient>
		<path fill="url(#SVGID_1_)" d="M230.858,24.527C227.707,9.444,212.927-0.229,197.842,2.92
			c-15.082,3.15-24.757,17.93-21.607,33.014c2.769,13.258,14.524,22.334,27.572,22.197c-0.057,0.572-0.033,1.163,0.091,1.755
			l0.503,2.407l-15.592,1.381l0.176,1.128l-70.514,14.373l-0.29-1.389c-0.124-0.593-0.336-1.144-0.619-1.645
			c12.012-5.097,19.153-18.119,16.384-31.377c-3.149-15.084-17.932-24.757-33.014-21.607C85.882,26.301,76.22,41.023,79.307,56.072
			L15.654,75.418l24.911,44.447l16.007-27.553l-21.807,79.026l69.113-13.976l0.033,0.217l28.281-5.462l0.544-49.758l16.506-3.62
			l-14.456,58.453l71.215-19.996l-0.141-0.208l22.778-4.399l0.793-72.516l-13.562,1.204l-0.778-3.728
			c-0.124-0.593-0.337-1.144-0.619-1.644C226.486,50.807,233.626,37.785,230.858,24.527z M75.593,129.101l8.964-61.568
			c5.26,6.796,13.503,10.93,22.341,10.837c-0.059,0.572-0.034,1.162,0.09,1.754l0.279,1.334l-3.676,0.75l-11.228,0.996l6.327,40.752
			L75.593,129.101z M183.475,104.167l-17.168,21.987l23.36-56.968l8.856,57.042L183.475,104.167z"/>
		<circle fill="#FFFFFF" cx="107.118" cy="51.045" r="20.228"/>
		<circle fill="#FFFFFF" cx="204.029" cy="30.807" r="20.228"/>
		<g>
			<path d="M110.358,40.177c1.696-2.753,5.301-3.609,8.053-1.913c2.75,1.693,3.607,5.299,1.91,8.052
				c-1.693,2.75-5.3,3.605-8.05,1.911C109.52,46.532,108.665,42.927,110.358,40.177z"/>
			<circle fill="#FFFFFF" cx="116.934" cy="42.867" r="1.607"/>
		</g>
		<g>
			<circle cx="213.143" cy="22.822" r="5.852"/>
			<circle fill="#FFFFFF" cx="214.737" cy="22.443" r="1.607"/>
		</g>
		<polygon fill="none" points="183.475,104.167 198.522,126.227 189.666,69.186 166.306,126.154 		"/>
		<g>
			<path fill="#1982FA" d="M54.617,72.081c-0.576-2.755-1.577-5.31-2.913-7.619l-36.05,10.957l15.463,27.59
				c1.186-0.079,2.38-0.236,3.576-0.486C48.601,99.618,57.521,85.989,54.617,72.081z"/>
			<path fill="#1982FA" d="M75.993,93.898c-7.231,1.51-11.87,8.597-10.36,15.829c1.187,5.681,5.817,9.746,11.252,10.503l3.851-26.45
				C79.201,93.545,77.603,93.562,75.993,93.898z"/>
			<path fill="#1982FA" d="M106.762,140.56c-7.231,1.51-11.87,8.598-10.36,15.829c0.17,0.816,0.422,1.594,0.726,2.338l6.751-1.365
				l0.033,0.217l18.952-3.661c0.018-0.988-0.061-1.991-0.272-2.999C121.082,143.688,113.995,139.049,106.762,140.56z"/>
			<path fill="#1982FA" d="M128.646,85.53c-7.926,1.656-13.012,9.425-11.355,17.352c1.512,7.245,8.135,12.098,15.314,11.618
				l0.132-12.142l13.55-2.972c-0.03-0.827-0.113-1.661-0.288-2.5C144.343,88.958,136.574,83.874,128.646,85.53z"/>
			<path fill="#1982FA" d="M220.901,70.469c-8.622,1.801-14.154,10.251-12.353,18.875c1.801,8.622,10.252,14.152,18.874,12.353
				c0.531-0.111,1.052-0.25,1.559-0.409l0.332-30.284C226.692,70.105,223.81,69.861,220.901,70.469z"/>
			<path fill="#1982FA" d="M179.98,123.692c-10.012,2.091-16.437,11.905-14.345,21.918c0.195,0.933,0.458,1.833,0.78,2.7
				l35.538-9.979c-0.02-0.097-0.034-0.196-0.055-0.293C199.807,128.023,189.994,121.602,179.98,123.692z"/>
			<path fill="#1982FA" d="M171.839,85.97c9.535-1.99,15.766-11.081,14.328-20.594l-35.743,7.286
				C152.844,82.055,162.248,87.974,171.839,85.97z"/>
			<path fill="#1982FA" d="M46.137,130.13l-11.372,41.208l45.792-9.26c0.233-2.803,0.077-5.684-0.527-8.578
				C76.76,137.841,61.768,127.635,46.137,130.13z"/>
		</g>
	</g>
</g>
</svg>
